<?xml version="1.0" encoding="UTF-8"?><svg id="a" xmlns="http://www.w3.org/2000/svg" viewBox="0 0 61.65 52.54"><defs><style>.b{fill:#00714a;}</style></defs><path class="b" d="M52.5,33.72c-1.78,2.06-4,3.17-6.71,2.67-1.3-.24-2.35-.23-3.57,.43-1.33,.73-2.81,.43-4.14-.35-2.25-1.31-4.52-2.61-6.9-3.98-.58,.97-1.17,1.9-1.71,2.86-2.21,3.94-5.6,5.82-10.09,5.78-2.21-.02-4.41,0-6.82,0,0,1.24-.03,2.43,.01,3.61,.04,.98-.35,1.39-1.34,1.36-1.31-.04-2.63-.01-4.09-.01,0,.9,.02,1.65,0,2.4-.07,2.55-1.55,4.03-4.08,4.04-3.39,.01-3.03,.28-3.03-3.04,0-8.51,0-17.03,0-25.54,0-1.61,.13-1.73,1.69-1.74,.48,0,.96-.01,1.45,0,2.36,.06,3.79,1.44,3.98,3.8,.02,.28,.04,.56,.07,1.03,1.28,0,2.55,.04,3.81-.01,1.12-.05,1.62,.35,1.57,1.53-.07,1.64-.02,3.29-.02,4.98,2.79,0,5.51,.09,8.22-.06,.66-.04,1.42-.74,1.87-1.34,.77-1.01,1.33-2.19,2.03-3.39-1.14-.67-2.24-1.32-3.34-1.95-3.06-1.77-6.12-3.52-9.17-5.3-2.78-1.62-3.48-4.18-1.89-6.96,2.27-3.97,4.56-7.93,6.86-11.88C18.67,0,21.28-.74,23.92,.78c12.31,7.09,24.6,14.21,36.91,21.29,.99,.57,1.02,1.12,.47,2.03-1.86,3.14-3.66,6.32-5.49,9.48-.83,1.44-.94,1.47-2.42,.63-.28-.16-.56-.3-.89-.49Zm7.21-10.28c-.46-.29-.79-.5-1.13-.7-7.29-4.21-14.58-8.42-21.88-12.63-4.51-2.61-9.02-5.22-13.54-7.82-1.56-.9-3.16-.83-4.01,.45-1.54,2.32-2.88,4.77-4.33,7.23,13.24,7.64,26.32,15.2,39.5,22.8,1.81-3.13,3.57-6.18,5.39-9.33ZM14,11.45c-.77,1.33-1.46,2.51-2.14,3.69-1.29,2.24-.9,3.71,1.34,5,5.07,2.93,10.14,5.85,15.22,8.78,3.47,2.01,6.94,4.02,10.42,6.01,1.6,.92,3.24,.67,4.16-.73,.94-1.42,1.74-2.94,2.65-4.49-10.58-6.11-21.06-12.16-31.64-18.27ZM1.8,24.03v26.77c3.08,.18,3.63-.34,3.63-3.34,0-6.83,0-13.66,0-20.49,0-2.66-.85-3.36-3.63-2.94Zm24.36,5.56c-.64,1.08-1.25,2.1-1.84,3.14-1.01,1.76-2.53,2.62-4.54,2.62-1.64,0-3.29,0-4.93,0-.74,0-1.48,0-2.2,0v4.01c2.84,0,5.6,.11,8.35-.03,2.73-.14,4.85-1.55,6.38-3.79,.83-1.22,1.53-2.53,2.34-3.9l-3.54-2.05Zm-15.36,14.74v-15.6c-.89,0-1.72,.06-2.55-.02-.93-.08-1.15,.3-1.14,1.17,.04,4.49,.02,8.98,.02,13.46,0,.31,.05,.62,.08,.98h3.58Zm36.31-13.76l-2.19,3.81c2.23,.89,4.4,.31,6.03-1.59l-3.83-2.22Z"/><path class="b" d="M52.35,22.16c1.79,0,3.21,1.42,3.22,3.21,0,1.83-1.5,3.32-3.3,3.27-1.78-.05-3.17-1.51-3.15-3.3,.02-1.8,1.44-3.2,3.23-3.19Zm1.52,3.24c-.07-.89-.52-1.49-1.47-1.53-.94-.03-1.49,.49-1.57,1.43-.08,.9,.63,1.68,1.5,1.64,.92-.05,1.45-.57,1.54-1.54Z"/><path class="b" d="M14.57,15.48c.4,.19,.7,.31,.97,.47,1.98,1.13,3.95,2.27,5.92,3.41,.53,.31,1.15,.63,.75,1.37-.45,.83-1.06,.4-1.63,.07-2.04-1.18-4.1-2.33-6.11-3.55-.32-.2-.53-.72-.6-1.13-.03-.17,.45-.43,.7-.64Z"/></svg>