<?xml version="1.0" encoding="UTF-8"?><svg id="a" xmlns="http://www.w3.org/2000/svg" viewBox="0 0 59 61.65"><defs><style>.b{fill:#00714a;}.c{fill:none;stroke:#00714a;stroke-miterlimit:10;}</style></defs><path class="b" d="m25.65,17.58c2.86,0,5.58,1.38,7.27,3.69l.97,1.32,1.52-.62c1.09-.45,2.25-.68,3.43-.68,3.85,0,7.28,2.45,8.53,6.09l.42,1.23,1.29.17c4.46.59,7.83,4.43,7.83,8.94,0,4.97-4.04,9.02-9.02,9.02-3.3,0-6.33-1.8-7.91-4.7l-1.71-3.12-1.91,3.01c-2.09,3.3-5.67,5.27-9.57,5.27-3.38,0-6.55-1.49-8.72-4.08l-1.11-1.33-1.52.84c-1.31.72-2.81,1.11-4.33,1.11-4.97,0-9.02-4.05-9.02-9.02s4.04-9.02,9.02-9.02c1.02,0,2.02.17,2.97.5l2.24.8.51-2.32c.9-4.1,4.61-7.07,8.81-7.07m0-2.1c-5.32,0-9.77,3.73-10.86,8.72-1.15-.41-2.38-.63-3.67-.63C4.98,23.58,0,28.56,0,34.69s4.98,11.12,11.12,11.12c1.94,0,3.76-.49,5.35-1.37,2.46,2.96,6.17,4.84,10.33,4.84,4.77,0,8.96-2.49,11.34-6.24,1.89,3.45,5.55,5.79,9.76,5.79,6.14,0,11.12-4.98,11.12-11.12,0-5.64-4.2-10.31-9.65-11.02-1.5-4.36-5.64-7.5-10.51-7.5-1.5,0-2.92.3-4.23.83-2.02-2.75-5.28-4.54-8.96-4.54h0Z"/><g><path class="b" d="m28.1,27.43h0c.96,0,1.85.38,2.52,1.06.66.67,1.01,1.56,1,2.5-.01.94-.39,1.82-1.06,2.48-.66.65-1.54,1-2.46,1s-1.85-.38-2.52-1.06c-.66-.67-1.01-1.56-1-2.5.01-.94.39-1.82,1.06-2.48.66-.65,1.54-1,2.46-1m0-1c-1.14,0-2.28.43-3.16,1.29-1.79,1.74-1.82,4.61-.08,6.39.89.91,2.06,1.36,3.24,1.36s2.28-.43,3.16-1.29c1.79-1.74,1.82-4.61.08-6.39-.89-.91-2.06-1.36-3.24-1.36h0Z"/><path class="c" d="m31.88,33.43s.06.05.09.08l3.19,3.27c.35.36.35.95-.02,1.3s-.95.35-1.31-.01l-3.19-3.27s-.04-.05-.07-.07"/></g></svg>