<?xml version="1.0" encoding="UTF-8"?><svg id="a" xmlns="http://www.w3.org/2000/svg" viewBox="0 0 59 61.65"><defs><style>.b{fill:none;stroke:#00714a;stroke-miterlimit:10;stroke-width:2.1px;}</style></defs><path class="b" d="m39.29,18.32h-19.31c-1.57,0-2.86,1.29-2.86,2.86v18.86c0,1.57,1.29,2.86,2.86,2.86h19.31c1.57,0,2.86-1.29,2.86-2.86v-18.86c0-1.57-1.29-2.86-2.86-2.86Z"/><polyline class="b" points="37.45 18.32 37.45 13.94 43.45 7.94"/><polyline class="b" points="42.15 22.9 47.1 22.9 50.09 19.66"/><polyline class="b" points="42.15 30.61 48.05 30.61 53.26 28.04"/><polyline class="b" points="42.15 38.34 51.61 38.34 53.96 40.3"/><polyline class="b" points="37.45 42.9 37.45 51.31 43.45 51.31"/><polyline class="b" points="29.63 42.9 29.63 51.69 34.84 55.48"/><polyline class="b" points="21.76 42.9 21.76 50.47 17.69 55.48"/><polyline class="b" points="17.12 38.34 11.09 38.34 7.21 43.86"/><polyline class="b" points="17.12 26.77 10.01 26.77 4.93 31"/><polyline class="b" points="17.12 22.9 12.17 22.9 8.99 19.66"/><polyline class="b" points="21.76 18.32 21.76 10.57 17.69 6.25"/><line class="b" x1="29.63" y1="18.07" x2="29.63" y2="10"/><circle class="b" cx="7.31" cy="18.11" r="2.24"/><circle class="b" cx="3.36" cy="32.64" r="2.24"/><circle class="b" cx="16.2" cy="4.5" r="2.24"/><circle class="b" cx="29.63" cy="7.69" r="2.24"/><circle class="b" cx="45.07" cy="6.25" r="2.24"/><circle class="b" cx="51.72" cy="18.07" r="2.24"/><circle class="b" cx="55.21" cy="27.15" r="2.24"/><circle class="b" cx="55.64" cy="41.75" r="2.24"/><circle class="b" cx="45.69" cy="51.19" r="2.24"/><circle class="b" cx="36.69" cy="56.76" r="2.24"/><circle class="b" cx="16.28" cy="57.15" r="2.24"/><circle class="b" cx="6.02" cy="45.85" r="2.24"/><rect class="b" x="23.74" y="27.62" width="11.7" height="11.7" rx="2.3" ry="2.3"/><circle class="b" cx="29.63" cy="32.63" r="1.88"/><line class="b" x1="29.63" y1="34.5" x2="29.63" y2="36.81"/><path class="b" d="m29.6,21.59h0c-2.31,0-4.19,1.87-4.19,4.19v1.84h8.37v-1.84c0-2.31-1.87-4.19-4.19-4.19Z"/></svg>