<?xml version="1.0" encoding="UTF-8"?><svg id="a" xmlns="http://www.w3.org/2000/svg" viewBox="0 0 61.65 57.78"><defs><style>.b{fill:#00714a;}</style></defs><path class="b" d="M58.64,17.98H3.01c-1.66,0-3.01-1.35-3.01-3.01V3.01C0,1.35,1.35,0,3.01,0H58.64c1.66,0,3.01,1.35,3.01,3.01V14.96c0,1.66-1.35,3.01-3.01,3.01ZM3.01,1.65c-.75,0-1.36,.61-1.36,1.36V14.96c0,.75,.61,1.36,1.36,1.36H58.64c.75,0,1.36-.61,1.36-1.36V3.01c0-.75-.61-1.36-1.36-1.36H3.01ZM52.89,12.98c-2.05,0-3.75-1.56-3.96-3.56-.21,2-1.91,3.56-3.97,3.56s-3.75-1.56-3.96-3.56c-.21,2-1.91,3.56-3.97,3.56-2.2,0-3.99-1.79-3.99-3.99s1.79-3.99,3.99-3.99c2.06,0,3.75,1.56,3.97,3.56,.21-2,1.91-3.56,3.96-3.56s3.75,1.56,3.97,3.56c.21-2,1.91-3.56,3.96-3.56,2.2,0,3.99,1.79,3.99,3.99s-1.79,3.99-3.99,3.99Zm0-6.32c-1.29,0-2.33,1.05-2.33,2.33s1.05,2.33,2.33,2.33,2.33-1.05,2.33-2.33-1.05-2.33-2.33-2.33Zm-7.93,0c-1.29,0-2.33,1.05-2.33,2.33s1.05,2.33,2.33,2.33,2.33-1.05,2.33-2.33-1.05-2.33-2.33-2.33Zm-7.93,0c-1.29,0-2.33,1.05-2.33,2.33s1.05,2.33,2.33,2.33,2.33-1.05,2.33-2.33-1.05-2.33-2.33-2.33ZM14.01,12.98H6.03V5h7.98v7.98Zm-6.32-1.65h4.67V6.65H7.69v4.67Z"/><path class="b" d="M58.64,38.11H3.01c-1.66,0-3.01-1.35-3.01-3.01v-11.95c0-1.66,1.35-3.01,3.01-3.01H58.64c1.66,0,3.01,1.35,3.01,3.01v11.95c0,1.66-1.35,3.01-3.01,3.01ZM3.01,21.79c-.75,0-1.36,.61-1.36,1.36v11.95c0,.75,.61,1.36,1.36,1.36H58.64c.75,0,1.36-.61,1.36-1.36v-11.95c0-.75-.61-1.36-1.36-1.36H3.01Zm49.88,11.32c-2.05,0-3.75-1.56-3.96-3.56-.21,2-1.91,3.56-3.97,3.56s-3.75-1.56-3.96-3.56c-.21,2-1.91,3.56-3.97,3.56-2.2,0-3.99-1.79-3.99-3.99s1.79-3.99,3.99-3.99c2.06,0,3.75,1.56,3.97,3.56,.21-2,1.91-3.56,3.96-3.56s3.75,1.56,3.97,3.56c.21-2,1.91-3.56,3.96-3.56,2.2,0,3.99,1.79,3.99,3.99s-1.79,3.99-3.99,3.99Zm0-6.32c-1.29,0-2.33,1.05-2.33,2.33s1.05,2.33,2.33,2.33,2.33-1.05,2.33-2.33-1.05-2.33-2.33-2.33Zm-7.93,0c-1.29,0-2.33,1.05-2.33,2.33s1.05,2.33,2.33,2.33,2.33-1.05,2.33-2.33-1.05-2.33-2.33-2.33Zm-7.93,0c-1.29,0-2.33,1.05-2.33,2.33s1.05,2.33,2.33,2.33,2.33-1.05,2.33-2.33-1.05-2.33-2.33-2.33Zm-23.02,6.32H6.03v-7.98h7.98v7.98Zm-6.32-1.65h4.67v-4.67H7.69v4.67Z"/><path class="b" d="M58.64,57.78H3.01c-1.66,0-3.01-1.35-3.01-3.01v-11.95c0-1.66,1.35-3.01,3.01-3.01H58.64c1.66,0,3.01,1.35,3.01,3.01v11.95c0,1.66-1.35,3.01-3.01,3.01ZM3.01,41.46c-.75,0-1.36,.61-1.36,1.36v11.95c0,.75,.61,1.36,1.36,1.36H58.64c.75,0,1.36-.61,1.36-1.36v-11.95c0-.75-.61-1.36-1.36-1.36H3.01Zm49.88,11.32c-2.05,0-3.75-1.56-3.96-3.56-.21,2-1.91,3.56-3.97,3.56s-3.75-1.56-3.96-3.56c-.21,2-1.91,3.56-3.97,3.56-2.2,0-3.99-1.79-3.99-3.99s1.79-3.99,3.99-3.99c2.06,0,3.75,1.56,3.97,3.56,.21-2,1.91-3.56,3.96-3.56s3.75,1.56,3.97,3.56c.21-2,1.91-3.56,3.96-3.56,2.2,0,3.99,1.79,3.99,3.99s-1.79,3.99-3.99,3.99Zm0-6.32c-1.29,0-2.33,1.05-2.33,2.33s1.05,2.33,2.33,2.33,2.33-1.05,2.33-2.33-1.05-2.33-2.33-2.33Zm-7.93,0c-1.29,0-2.33,1.05-2.33,2.33s1.05,2.33,2.33,2.33,2.33-1.05,2.33-2.33-1.05-2.33-2.33-2.33Zm-7.93,0c-1.29,0-2.33,1.05-2.33,2.33s1.05,2.33,2.33,2.33,2.33-1.05,2.33-2.33-1.05-2.33-2.33-2.33Zm-23.02,6.32H6.03v-7.98h7.98v7.98Zm-6.32-1.65h4.67v-4.67H7.69v4.67Z"/></svg>