<?xml version="1.0" encoding="UTF-8"?><svg id="a" xmlns="http://www.w3.org/2000/svg" viewBox="0 0 59 61.65"><defs><style>.b{fill:#00714a;}</style></defs><path class="b" d="M19.1,48.54c0,2.35,0,4.7,0,7.05,0,.77-.01,.78-.76,.78-.3,0-.61,0-.91,0-.33,.01-.47-.16-.48-.47,0-.14,0-.29,0-.43,0-4.34,0-8.68,0-13.01,0-.65-.1-.7-.7-.43-.73,.33-1.48,.61-2.23,.91-.3,.12-.61,.23-.92,.35-.34,.14-.38,.41-.38,.74,0,3.55,0,7.09,0,10.64,0,.4-.01,.81,0,1.21,.01,.34-.13,.51-.48,.5-.42-.01-.84-.01-1.25,0-.27,0-.4-.11-.42-.37,0-.14,0-.29,0-.43,0-3.52,0-7.03,0-10.55,0-.65-.01-.68-.61-.46-2,.74-3.93,1.57-5.41,3.21-1.08,1.19-1.9,2.52-2.2,4.08-.23,1.23-.19,2.52-.24,3.79-.03,.65-.04,.69-.68,.69-.33,0-.66,0-.99,0-.27,0-.43-.12-.42-.38,.03-1.38-.08-2.79,.15-4.14,.42-2.45,1.67-4.49,3.53-6.16,1.22-1.1,2.59-1.92,4.14-2.48,1.23-.45,2.42-1.02,3.64-1.52,.98-.4,1.97-.77,2.95-1.17,.99-.4,1.98-.83,2.97-1.24,.98-.4,1.96-.81,2.95-1.18,.66-.25,.74-.32,.74-1.01,0-1.01,.02-2.02-.01-3.03,0-.25-.11-.56-.28-.72-1.27-1.22-2.18-2.66-2.8-4.28-.44-1.16-.78-2.37-.92-3.62-.06-.54-.14-1.09-.27-1.62-.05-.2-.23-.4-.41-.53-.92-.68-.61-1.65-.62-2.55,0-.07,.2-.19,.32-.2,.49-.02,.98,0,1.47-.01,.26,0,.4,.13,.35,.37-.13,.7,.22,1.14,.69,1.6,.22,.21,.35,.6,.38,.92,.2,2.34,.65,4.61,1.9,6.64,.99,1.62,2.34,2.84,4.13,3.48,1.1,.39,2.24,.73,3.39,.95,.54,.1,1.17-.07,1.73-.23,1.83-.52,3.44-1.45,4.75-2.83,1.17-1.24,1.99-2.69,2.5-4.32,.4-1.26,.7-2.54,.8-3.87,.02-.28,.24-.59,.44-.81,.37-.4,.52-.83,.48-1.37-.04-.53,.07-.61,.58-.61,.36,0,.72,0,1.08,0,.3,0,.46,.13,.46,.44,0,.43,.06,.88-.03,1.29-.08,.37-.27,.76-.52,1.05-.47,.53-.46,1.2-.57,1.81-.55,3.05-1.67,5.8-3.87,8.05-.14,.15-.24,.4-.24,.6-.02,1.17-.03,2.33,0,3.5,0,.2,.17,.49,.34,.57,1.18,.51,2.38,.97,3.58,1.45,.52,.21,1.02,.45,1.54,.64,.16,.06,.39,.04,.55-.02,.74-.28,1.44-.7,2.19-.86,1.08-.23,2.19-.36,3.29-.36,1.01,0,2.05,.11,3.03,.36,1.32,.34,2.54,.94,3.66,1.75,1.21,.87,2.23,1.91,3.01,3.16,1.1,1.75,1.8,3.65,1.8,5.75,0,.76,.04,1.53-.05,2.29-.15,1.29-.6,2.49-1.17,3.66-.89,1.83-2.28,3.21-3.96,4.29-.8,.51-1.71,.86-2.59,1.23-1.74,.73-3.58,.66-5.4,.48-.88-.09-1.75-.44-2.61-.72-1.24-.4-2.31-1.13-3.3-1.96-1.34-1.12-2.36-2.51-3.06-4.11-.78-1.79-1.09-3.67-.94-5.64,.16-2.2,.9-4.16,2.17-5.94,.22-.3,.35-.61,.31-1-.03-.26-.03-.52,0-.78,.06-.42-.13-.64-.49-.79-.7-.28-1.39-.6-2.11-.85-.15-.05-.44,.09-.57,.23-1.37,1.47-2.73,2.96-4.09,4.44-.45,.49-.89,.98-1.37,1.44-.16,.15-.42,.22-.64,.27-.85,.18-1.44-.2-2-.83-1.55-1.76-3.15-3.47-4.73-5.21-.31-.34-.55-.5-1.02-.21-.48,.29-1.05,.45-1.59,.63-.57,.19-.69,.32-.69,.92,0,2.36,0,4.73,0,7.09Zm30.11-4.42c0-.36,.05-.77-.02-1.17-.03-.19-.25-.43-.44-.5-.14-.05-.4,.1-.54,.22-.15,.14-.24,.35-.35,.54-.65,1.14-1.3,2.29-1.96,3.43-.85,1.46-1.71,2.91-2.55,4.38-.33,.58-.05,1.04,.61,1.05,.6,0,1.21,0,1.81-.03,.36-.01,.49,.1,.41,.48-.17,.86-.3,1.73-.43,2.59-.1,.64-.19,1.28-.28,1.92-.05,.34,0,.66,.37,.78,.33,.11,.58-.05,.75-.35,.44-.77,.89-1.53,1.34-2.3,1.16-1.99,2.33-3.97,3.49-5.97,.33-.56,.11-.97-.56-1.01-.44-.03-.89,0-1.34,0-.57,0-.61-.05-.58-.62,.07-1.13,.16-2.27,.24-3.44Zm-15.39-7.36c0-.42,0-.84,0-1.25,0-.48-.12-.57-.53-.34-1.06,.6-2.21,.94-3.39,1.22-.5,.11-1.03,.16-1.54,.11-1.63-.14-3.17-.62-4.65-1.32-.32-.15-.49-.05-.49,.31,0,.66-.03,1.33,.01,1.99,.01,.23,.13,.51,.29,.68,1.59,1.76,3.19,3.5,4.79,5.25,.41,.45,.46,.45,.86,0,1.13-1.24,2.23-2.51,3.42-3.7,.84-.84,1.56-1.66,1.22-2.96Z"/><path class="b" d="M31.91,9.59c0,1.34,0,2.68,0,4.02,0,.53-.33,.92-.84,1.07-.41,.12-.93-.06-1.16-.46-.1-.16-.14-.38-.14-.57,0-2.61-.03-5.22,.04-7.82,.03-1.03,.24-2.06,.76-2.98,.18-.32,.06-.51-.26-.55-.57-.07-1.15-.11-1.72-.13-.58-.02-1.15,.01-1.73,0-.34,0-.41,.17-.29,.44,.73,1.57,.82,3.24,.82,4.93,0,1.99,0,3.98-.02,5.97,0,.74-.35,1.13-.99,1.15-.64,.02-1.08-.39-1.11-1.11-.02-.6,0-1.21,.03-1.81,.12-2.22,.11-4.44-.15-6.65-.06-.5-.23-1.01-.45-1.47-.28-.58-.84-.7-1.42-.42-1.85,.87-3.25,2.23-4.31,3.97-.7,1.13-1.18,2.35-1.54,3.62-.18,.62-.26,1.27-.35,1.91-.1,.7-.53,1.11-1.19,1.11-.56,0-1.03-.41-.97-.97,.09-.85,.25-1.7,.44-2.53,.14-.62,.38-1.23,.59-1.84,.45-1.3,1.13-2.47,1.97-3.56,1.26-1.64,2.83-2.9,4.71-3.73,1.03-.46,2.12-.75,3.25-.95,.99-.18,1.97-.25,2.95-.18,.94,.07,1.86,.27,2.79,.44,1.49,.27,2.84,.9,4.13,1.66,2.21,1.29,3.96,3.03,5.14,5.31,.84,1.62,1.32,3.33,1.37,5.15,.02,.89-.38,1.29-1.25,1.22-.36-.03-.6-.22-.71-.53-.11-.31-.2-.64-.22-.96-.13-2.12-.95-3.98-2.21-5.64-1.05-1.37-2.35-2.47-3.95-3.18-.76-.34-1.46,.05-1.68,.85-.49,1.72-.28,3.49-.31,5.24Z"/><path class="b" d="M27.91,20.15c-1.86-.15-3.82-.21-5.76-.49-1.48-.21-2.95-.6-4.38-1.07-1.26-.41-2.49-.99-3.45-1.95-.43-.43-.79-.94-1.15-1.44-.05-.07-.02-.31,.04-.34,.48-.22,.97-.43,1.47-.59,.14-.05,.43,.04,.51,.16,.54,.84,1.36,1.31,2.21,1.73,1.3,.65,2.72,.98,4.13,1.29,.63,.14,1.27,.27,1.91,.3,2.14,.1,4.29,.25,6.43,.21,1.57-.03,3.16-.23,4.71-.5,1.61-.27,3.2-.68,4.7-1.33,1.03-.44,2.03-.94,2.76-1.84,.17-.21,.32-.31,.61-.09,.34,.26,.74,.44,1.12,.64,.29,.15,.33,.32,.13,.58-.59,.76-1.28,1.43-2.14,1.83-1.26,.6-2.55,1.19-3.89,1.57-1.54,.43-3.14,.69-4.73,.89-1.7,.22-3.41,.29-5.22,.43Z"/><path class="b" d="M28.55,56.16c-.32,0-.63,0-.95,0-.24,0-.37-.12-.37-.37,0-.58,0-1.15,0-1.73,0-.27,.14-.41,.39-.41,.62,0,1.24-.02,1.85,0,.12,0,.32,.21,.33,.34,.03,.62,.03,1.24,0,1.85,0,.11-.19,.28-.31,.3-.31,.04-.63,.01-.95,.01Z"/><path class="b" d="M28.6,48.33c.29,0,.58,0,.86,0,.25,0,.37,.1,.37,.36,0,.58,0,1.15,0,1.73,0,.3-.14,.41-.42,.41-.58,0-1.15,0-1.73,0-.3,0-.45-.13-.45-.44,0-.55,.01-1.1,0-1.64,0-.31,.15-.41,.42-.41,.32,0,.63,0,.95,0Z"/></svg>