<?xml version="1.0" encoding="UTF-8"?><svg id="a" xmlns="http://www.w3.org/2000/svg" viewBox="0 0 61.65 28.84"><defs><style>.b{fill:#00714a;}</style></defs><path class="b" d="M6.04,15.22c.01,.43,.02,.72,.03,1.02,0,.31-.14,.53-.39,.71-.09,.07-.18,.22-.18,.34-.01,.91,0,1.82,0,2.73,0,.41-.06,.47-.48,.47-.27,0-.55-.01-.82,0-.33,.02-.44-.14-.44-.45,0-.91,0-1.82,0-2.73,0-.19-.03-.31-.22-.4-.25-.12-.36-.37-.36-.65,0-.31,.01-.61,.02-1.02-.26,.02-.49,.04-.71,.06-.24,.02-.39-.07-.51-.3-.62-1.26-1.26-2.52-1.88-3.78-.06-.13-.09-.28-.09-.42C0,9.3,0,7.81,0,6.32c0-.5,.03-.53,.57-.57,0-.12,0-.24,0-.36,0-1.44,0-2.89,0-4.33C.58,.31,.89,0,1.64,0c1.99,0,3.98,0,5.97,0,.74,0,1.05,.32,1.05,1.07,0,1.43,0,2.87,0,4.3,0,.12,0,.25,0,.37q.57,.09,.57,.67c0,1.44,0,2.89,0,4.33,0,.19-.06,.4-.14,.58-.58,1.18-1.18,2.35-1.75,3.54-.16,.34-.37,.49-.74,.44-.17-.02-.34-.05-.56-.08ZM.76,11.26c.58,1.15,1.12,2.24,1.67,3.32,.04,.07,.17,.13,.27,.13,1.27,0,2.55,.01,3.82,0,.11,0,.27-.1,.32-.2,.28-.51,.53-1.03,.78-1.55,.27-.55,.54-1.09,.85-1.72-.25,.01-.42,.03-.6,.03-.2,0-.4-.08-.35-.3,.02-.11,.21-.25,.34-.27,.24-.03,.5,.01,.72,.02V6.42h-2.81c0,.5,0,1.04,0,1.57,0,.48-.19,.86-.61,1.1-.75,.42-1.66-.09-1.7-.97-.03-.58,.02-1.16,.04-1.72H.65v4.27c1.88,0,3.79,0,5.7,0,.11,0,.24-.02,.34,.02,.1,.05,.21,.16,.22,.25,0,.09-.09,.23-.18,.28-.09,.05-.22,.03-.33,.03-1.22,0-2.43,0-3.65,0-.64,0-1.27,0-1.97,0ZM2.02,.6c-.1,0-.17-.01-.24-.01-.59,0-.62,.03-.62,.6,0,1,0,2,0,3,0,.52,0,1.04,0,1.52H3.48c0-.41-.02-.84-.03-1.27,0-.28,.13-.42,.41-.41,.48,0,.96,0,1.43,0,.41,0,.48,.07,.48,.47,0,.42,0,.83-.01,1.19h2.32c0-1.5,0-3.04,0-4.57,0-.49-.05-.54-.55-.54-.1,0-.19,.01-.32,.02,0,.62,0,1.21,0,1.8,0,.42-.07,.49-.5,.49-1.4,0-2.8,0-4.19,0-.44,0-.5-.07-.5-.52,0-.59,0-1.18,0-1.78Zm2.04,4.05c0,1.15,0,2.29,0,3.43,0,.34,.25,.57,.56,.57,.31,0,.55-.23,.57-.56,.01-.45,0-.91,0-1.37,0-.69,0-1.38,0-2.08h-1.13Zm1.43,10.76h-1.76c0,.24,0,.52,.04,.8,.01,.08,.13,.22,.2,.22,.43,.02,.86,.02,1.29,0,.07,0,.2-.11,.21-.18,.03-.3,.02-.61,.02-.84Zm-.65,1.71l-.43-.05v2.83l.43,.02v-2.8ZM2.64,.61v1.66l.49,.02V.59l-.49,.02Zm1.15-.02v1.65l.47,.05V.61l-.47-.02Zm1.66,.03l-.45-.02v1.68l.45,.04V.61Zm.68-.02v1.66l.47,.03V.59h-.47Z"/><path class="b" d="M7.07,12.16c.2,.18,.15,.44-.05,.51-.08,.03-.18,.03-.27,.03-1.42,0-2.84,0-4.26,0-.08,0-.18,.02-.23-.02-.09-.08-.21-.19-.21-.29,0-.08,.13-.18,.22-.25,.05-.03,.13-.02,.2-.02,1.43,0,2.86,0,4.3,0,.12,0,.24,.03,.31,.04Z"/><path class="b" d="M6.02,13.36c0,.1,.05,.22,.01,.29-.05,.09-.16,.19-.25,.19-.77,.02-1.54,.02-2.31,0-.1,0-.26-.17-.26-.27,0-.09,.16-.27,.25-.28,.77-.02,1.54-.02,2.31-.01,.07,0,.14,.05,.25,.09Z"/><path class="b" d="M16.88,15.22c.01,.43,.02,.72,.03,1.02,0,.31-.14,.53-.39,.71-.09,.07-.18,.22-.18,.34-.01,.91,0,1.82,0,2.73,0,.41-.06,.47-.48,.47-.27,0-.55-.01-.82,0-.33,.02-.44-.14-.44-.45,0-.91,0-1.82,0-2.73,0-.19-.03-.31-.22-.4-.25-.12-.36-.37-.36-.65,0-.31,.01-.61,.02-1.02-.26,.02-.49,.04-.71,.06-.24,.02-.39-.07-.51-.3-.62-1.26-1.26-2.52-1.88-3.78-.06-.13-.09-.28-.09-.42,0-1.49,0-2.98,0-4.47,0-.5,.03-.53,.57-.57,0-.12,0-.24,0-.36,0-1.44,0-2.89,0-4.33,0-.74,.31-1.05,1.06-1.05,1.99,0,3.98,0,5.97,0,.74,0,1.05,.32,1.05,1.07,0,1.43,0,2.87,0,4.3,0,.12,0,.25,0,.37q.57,.09,.57,.67c0,1.44,0,2.89,0,4.33,0,.19-.06,.4-.14,.58-.58,1.18-1.18,2.35-1.75,3.54-.16,.34-.37,.49-.74,.44-.17-.02-.34-.05-.56-.08Zm-5.27-3.96c.58,1.15,1.12,2.24,1.67,3.32,.04,.07,.17,.13,.27,.13,1.27,0,2.55,.01,3.82,0,.11,0,.27-.1,.32-.2,.28-.51,.53-1.03,.78-1.55,.27-.55,.54-1.09,.85-1.72-.25,.01-.42,.03-.6,.03-.2,0-.4-.08-.35-.3,.02-.11,.21-.25,.34-.27,.24-.03,.5,.01,.72,.02V6.42h-2.81c0,.5,0,1.04,0,1.57,0,.48-.19,.86-.61,1.1-.75,.42-1.66-.09-1.7-.97-.03-.58,.02-1.16,.04-1.72h-2.85v4.27c1.88,0,3.79,0,5.7,0,.11,0,.24-.02,.34,.02,.1,.05,.21,.16,.22,.25,0,.09-.09,.23-.18,.28-.09,.05-.22,.03-.33,.03-1.22,0-2.43,0-3.65,0-.64,0-1.27,0-1.97,0ZM12.87,.6c-.1,0-.17-.01-.24-.01-.59,0-.62,.03-.62,.6,0,1,0,2,0,3,0,.52,0,1.04,0,1.52h2.33c0-.41-.02-.84-.03-1.27,0-.28,.13-.42,.41-.41,.48,0,.96,0,1.43,0,.41,0,.48,.07,.48,.47,0,.42,0,.83-.01,1.19h2.32c0-1.5,0-3.04,0-4.57,0-.49-.05-.54-.55-.54-.1,0-.19,.01-.32,.02,0,.62,0,1.21,0,1.8,0,.42-.07,.49-.5,.49-1.4,0-2.8,0-4.19,0-.44,0-.5-.07-.5-.52,0-.59,0-1.18,0-1.78Zm2.04,4.05c0,1.15,0,2.29,0,3.43,0,.34,.25,.57,.56,.57,.31,0,.55-.23,.57-.56,.01-.45,0-.91,0-1.37,0-.69,0-1.38,0-2.08h-1.13Zm1.43,10.76h-1.76c0,.24,0,.52,.04,.8,.01,.08,.13,.22,.2,.22,.43,.02,.86,.02,1.29,0,.07,0,.2-.11,.21-.18,.03-.3,.02-.61,.02-.84Zm-.65,1.71l-.43-.05v2.83l.43,.02v-2.8ZM13.48,.61v1.66l.49,.02V.59l-.49,.02Zm1.15-.02v1.65l.47,.05V.61l-.47-.02Zm1.66,.03l-.45-.02v1.68l.45,.04V.61Zm.68-.02v1.66l.47,.03V.59h-.47Z"/><path class="b" d="M17.92,12.16c.2,.18,.15,.44-.05,.51-.08,.03-.18,.03-.27,.03-1.42,0-2.84,0-4.26,0-.08,0-.18,.02-.23-.02-.09-.08-.21-.19-.21-.29,0-.08,.13-.18,.22-.25,.05-.03,.13-.02,.2-.02,1.43,0,2.86,0,4.3,0,.12,0,.24,.03,.31,.04Z"/><path class="b" d="M16.86,13.36c0,.1,.05,.22,.01,.29-.05,.09-.16,.19-.25,.19-.77,.02-1.54,.02-2.31,0-.1,0-.26-.17-.26-.27,0-.09,.16-.27,.25-.28,.77-.02,1.54-.02,2.31-.01,.07,0,.14,.05,.25,.09Z"/><g><path class="b" d="M19.27,28.84H8.42c-2.4,0-4.35-1.95-4.35-4.35v-4.32h1.19v4.32c0,1.74,1.42,3.16,3.16,3.16h8.16l.03,.02c.75,.62,1.69,.97,2.66,.97v.2ZM4.27,20.37v4.12c0,2.29,1.86,4.15,4.15,4.15h9.55c-.53-.17-1.03-.43-1.47-.79H8.42c-1.85,0-3.36-1.51-3.36-3.36v-4.12h-.79Z"/><path class="b" d="M29.01,28.84h-9.74c-1.02,0-2-.36-2.79-1.01-1-.83-1.57-2.05-1.57-3.34v-4.32h1.19v4.32c0,1.74,1.42,3.16,3.16,3.16h8.37l.03,.02c.38,.32,.81,.57,1.28,.73l.07,.02v.41Zm-13.9-8.48v4.12c0,1.23,.54,2.39,1.49,3.19,.75,.62,1.69,.97,2.66,.97h9.55v-.07c-.46-.17-.88-.41-1.25-.72h-8.3c-1.85,0-3.36-1.51-3.36-3.36v-4.12h-.79Z"/><path class="b" d="M30.32,28.84h-1.51v-.48l.13,.05c.44,.16,.9,.24,1.37,.24v.2Zm-1.31-.2h0Z"/></g><path class="b" d="M27.94,15.22c.01,.43,.02,.72,.03,1.02,0,.31-.14,.53-.39,.71-.09,.07-.18,.22-.18,.34-.01,.91,0,1.82,0,2.73,0,.41-.06,.47-.48,.47-.27,0-.55-.01-.82,0-.33,.02-.44-.14-.44-.45,0-.91,0-1.82,0-2.73,0-.19-.03-.31-.22-.4-.25-.12-.36-.37-.36-.65,0-.31,.01-.61,.02-1.02-.26,.02-.49,.04-.71,.06-.24,.02-.39-.07-.51-.3-.62-1.26-1.26-2.52-1.88-3.78-.06-.13-.09-.28-.09-.42,0-1.49,0-2.98,0-4.47,0-.5,.03-.53,.57-.57,0-.12,0-.24,0-.36,0-1.44,0-2.89,0-4.33,0-.74,.31-1.05,1.06-1.05,1.99,0,3.98,0,5.97,0,.74,0,1.05,.32,1.05,1.07,0,1.43,0,2.87,0,4.3,0,.12,0,.25,0,.37q.57,.09,.57,.67c0,1.44,0,2.89,0,4.33,0,.19-.06,.4-.14,.58-.58,1.18-1.18,2.35-1.75,3.54-.16,.34-.37,.49-.74,.44-.17-.02-.34-.05-.56-.08Zm-5.27-3.96c.58,1.15,1.12,2.24,1.67,3.32,.04,.07,.17,.13,.27,.13,1.27,0,2.55,.01,3.82,0,.11,0,.27-.1,.32-.2,.28-.51,.53-1.03,.78-1.55,.27-.55,.54-1.09,.85-1.72-.25,.01-.42,.03-.6,.03-.2,0-.4-.08-.35-.3,.02-.11,.21-.25,.34-.27,.24-.03,.5,.01,.72,.02V6.42h-2.81c0,.5,0,1.04,0,1.57,0,.48-.19,.86-.61,1.1-.75,.42-1.66-.09-1.7-.97-.03-.58,.02-1.16,.04-1.72h-2.85v4.27c1.88,0,3.79,0,5.7,0,.11,0,.24-.02,.34,.02,.1,.05,.21,.16,.22,.25,0,.09-.09,.23-.18,.28-.09,.05-.22,.03-.33,.03-1.22,0-2.43,0-3.65,0-.64,0-1.27,0-1.97,0ZM23.92,.6c-.1,0-.17-.01-.24-.01-.59,0-.62,.03-.62,.6,0,1,0,2,0,3,0,.52,0,1.04,0,1.52h2.33c0-.41-.02-.84-.03-1.27,0-.28,.13-.42,.41-.41,.48,0,.96,0,1.43,0,.41,0,.48,.07,.48,.47,0,.42,0,.83-.01,1.19h2.32c0-1.5,0-3.04,0-4.57,0-.49-.05-.54-.55-.54-.1,0-.19,.01-.32,.02,0,.62,0,1.21,0,1.8,0,.42-.07,.49-.5,.49-1.4,0-2.8,0-4.19,0-.44,0-.5-.07-.5-.52,0-.59,0-1.18,0-1.78Zm2.04,4.05c0,1.15,0,2.29,0,3.43,0,.34,.25,.57,.56,.57,.31,0,.55-.23,.57-.56,.01-.45,0-.91,0-1.37,0-.69,0-1.38,0-2.08h-1.13Zm1.43,10.76h-1.76c0,.24,0,.52,.04,.8,.01,.08,.13,.22,.2,.22,.43,.02,.86,.02,1.29,0,.07,0,.2-.11,.21-.18,.03-.3,.02-.61,.02-.84Zm-.65,1.71l-.43-.05v2.83l.43,.02v-2.8ZM24.54,.61v1.66l.49,.02V.59l-.49,.02Zm1.15-.02v1.65l.47,.05V.61l-.47-.02Zm1.66,.03l-.45-.02v1.68l.45,.04V.61Zm.68-.02v1.66l.47,.03V.59h-.47Z"/><path class="b" d="M28.97,12.16c.2,.18,.15,.44-.05,.51-.08,.03-.18,.03-.27,.03-1.42,0-2.84,0-4.26,0-.08,0-.18,.02-.23-.02-.09-.08-.21-.19-.21-.29,0-.08,.13-.18,.22-.25,.05-.03,.13-.02,.2-.02,1.43,0,2.86,0,4.3,0,.12,0,.24,.03,.31,.04Z"/><path class="b" d="M27.91,13.36c0,.1,.05,.22,.01,.29-.05,.09-.16,.19-.25,.19-.77,.02-1.54,.02-2.31,0-.1,0-.26-.17-.26-.27,0-.09,.16-.27,.25-.28,.77-.02,1.54-.02,2.31-.01,.07,0,.14,.05,.25,.09Z"/><g><path class="b" d="M39.86,28.84h-9.54c-.49,0-.98-.08-1.44-.25-.49-.17-.94-.43-1.35-.77-.99-.83-1.57-2.05-1.57-3.34v-4.32h1.19v4.32c0,1.74,1.42,3.16,3.16,3.16h8.06l.03,.02c.41,.35,.88,.6,1.38,.77l.07,.02v.38Zm-13.69-8.48v4.12c0,1.23,.54,2.39,1.49,3.19,.38,.32,.81,.57,1.28,.73,.44,.16,.9,.24,1.38,.24h9.34v-.04c-.49-.17-.95-.42-1.35-.76h-7.98c-1.85,0-3.36-1.51-3.36-3.36v-4.12h-.79Z"/><path class="b" d="M41.06,28.84h-1.4v-.44l.13,.04c.41,.13,.84,.2,1.27,.2v.2Z"/></g><path class="b" d="M38.68,15.22c.01,.43,.02,.72,.03,1.02,0,.31-.14,.53-.39,.71-.09,.07-.18,.22-.18,.34-.01,.91,0,1.82,0,2.73,0,.41-.06,.47-.48,.47-.27,0-.55-.01-.82,0-.33,.02-.44-.14-.44-.45,0-.91,0-1.82,0-2.73,0-.19-.03-.31-.22-.4-.25-.12-.36-.37-.36-.65,0-.31,.01-.61,.02-1.02-.26,.02-.49,.04-.71,.06-.24,.02-.39-.07-.51-.3-.62-1.26-1.26-2.52-1.88-3.78-.06-.13-.09-.28-.09-.42,0-1.49,0-2.98,0-4.47,0-.5,.03-.53,.57-.57,0-.12,0-.24,0-.36,0-1.44,0-2.89,0-4.33,0-.74,.31-1.05,1.06-1.05,1.99,0,3.98,0,5.97,0,.74,0,1.05,.32,1.05,1.07,0,1.43,0,2.87,0,4.3,0,.12,0,.25,0,.37q.57,.09,.57,.67c0,1.44,0,2.89,0,4.33,0,.19-.06,.4-.14,.58-.58,1.18-1.18,2.35-1.75,3.54-.16,.34-.37,.49-.74,.44-.17-.02-.34-.05-.56-.08Zm-5.27-3.96c.58,1.15,1.12,2.24,1.67,3.32,.04,.07,.17,.13,.27,.13,1.27,0,2.55,.01,3.82,0,.11,0,.27-.1,.32-.2,.28-.51,.53-1.03,.78-1.55,.27-.55,.54-1.09,.85-1.72-.25,.01-.42,.03-.6,.03-.2,0-.4-.08-.35-.3,.02-.11,.21-.25,.34-.27,.24-.03,.5,.01,.72,.02V6.42h-2.81c0,.5,0,1.04,0,1.57,0,.48-.19,.86-.61,1.1-.75,.42-1.66-.09-1.7-.97-.03-.58,.02-1.16,.04-1.72h-2.85v4.27c1.88,0,3.79,0,5.7,0,.11,0,.24-.02,.34,.02,.1,.05,.21,.16,.22,.25,0,.09-.09,.23-.18,.28-.09,.05-.22,.03-.33,.03-1.22,0-2.43,0-3.65,0-.64,0-1.27,0-1.97,0Zm1.26-10.66c-.1,0-.17-.01-.24-.01-.59,0-.62,.03-.62,.6,0,1,0,2,0,3,0,.52,0,1.04,0,1.52h2.33c0-.41-.02-.84-.03-1.27,0-.28,.13-.42,.41-.41,.48,0,.96,0,1.43,0,.41,0,.48,.07,.48,.47,0,.42,0,.83-.01,1.19h2.32c0-1.5,0-3.04,0-4.57,0-.49-.05-.54-.55-.54-.1,0-.19,.01-.32,.02,0,.62,0,1.21,0,1.8,0,.42-.07,.49-.5,.49-1.4,0-2.8,0-4.19,0-.44,0-.5-.07-.5-.52,0-.59,0-1.18,0-1.78Zm2.04,4.05c0,1.15,0,2.29,0,3.43,0,.34,.25,.57,.56,.57,.31,0,.55-.23,.57-.56,.01-.45,0-.91,0-1.37,0-.69,0-1.38,0-2.08h-1.13Zm1.43,10.76h-1.76c0,.24,0,.52,.04,.8,.01,.08,.13,.22,.2,.22,.43,.02,.86,.02,1.29,0,.07,0,.2-.11,.21-.18,.03-.3,.02-.61,.02-.84Zm-.65,1.71l-.43-.05v2.83l.43,.02v-2.8ZM35.28,.61v1.66l.49,.02V.59l-.49,.02Zm1.15-.02v1.65l.47,.05V.61l-.47-.02Zm1.66,.03l-.45-.02v1.68l.45,.04V.61Zm.68-.02v1.66l.47,.03V.59h-.47Z"/><path class="b" d="M39.72,12.16c.2,.18,.15,.44-.05,.51-.08,.03-.18,.03-.27,.03-1.42,0-2.84,0-4.26,0-.08,0-.18,.02-.23-.02-.09-.08-.21-.19-.21-.29,0-.08,.13-.18,.22-.25,.05-.03,.13-.02,.2-.02,1.43,0,2.86,0,4.3,0,.12,0,.24,.03,.31,.04Z"/><path class="b" d="M38.66,13.36c0,.1,.05,.22,.01,.29-.05,.09-.16,.19-.25,.19-.77,.02-1.54,.02-2.31,0-.1,0-.26-.17-.26-.27,0-.09,.16-.27,.25-.28,.77-.02,1.54-.02,2.31-.01,.07,0,.14,.05,.25,.09Z"/><path class="b" d="M61.65,28.84h-20.59c-.46,0-.91-.07-1.34-.21-.53-.17-1.02-.44-1.45-.8-1-.83-1.57-2.05-1.57-3.34v-4.32h1.19v4.32c0,1.74,1.42,3.16,3.16,3.16h20.59v1.19Zm-24.74-8.48v4.12c0,1.23,.54,2.39,1.49,3.19,.41,.35,.88,.6,1.38,.77,.41,.13,.84,.2,1.27,.2h20.39v-.79h-20.39c-1.85,0-3.36-1.51-3.36-3.36v-4.12h-.79Z"/></svg>