<?xml version="1.0" encoding="UTF-8"?><svg id="a" xmlns="http://www.w3.org/2000/svg" viewBox="0 0 61.65 61.64"><defs><style>.b{fill:#00714a;}</style></defs><path class="b" d="M47.92,49.19c0,2.2,0,4.3,0,6.4,0,1.52,0,3.05,0,4.57,0,1.03-.44,1.47-1.47,1.47-10.37,0-20.74,0-31.12,0-1.03,0-1.46-.44-1.47-1.47,0-3.39,0-6.78,0-10.17,0-.24,0-.48,0-.77-.26-.01-.47-.03-.68-.03-1.18,0-2.37,0-3.55,0-1.26,0-1.67-.39-1.67-1.64,0-3.45-.01-6.9,0-10.35,0-.45-.13-.65-.56-.8C2.7,34.74-.26,30.18,.02,25.09c.26-4.8,3.8-9.05,8.5-10.18,.47-.11,.69-.35,.87-.76,2.17-4.94,7.24-7.99,12.62-7.56,1.07,.09,2.13,.33,3.18,.57,.38,.09,.56,.03,.78-.28C29.31,2.2,33.86-.13,39.6,0c7.88,.19,14.64,6.88,14.95,14.74,.02,.5,.2,.71,.64,.91,4.14,1.89,6.66,6.13,6.46,10.79-.2,4.44-3.15,8.48-7.33,9.97-.41,.15-.49,.34-.49,.73,.01,3.47,0,6.94,0,10.41,0,1.22-.41,1.63-1.62,1.63-1.4,0-2.8,0-4.28,0Zm-18.42,3.72c-.23,0-.43,0-.62,0-1.2,0-2.41,0-3.61,0-1.29-.02-1.64-.38-1.64-1.66,0-9.77,0-19.55,0-29.32,0-1.42,.34-1.77,1.78-1.78,3.63,0,7.26,0,10.89,0,1.38,0,1.74,.37,1.74,1.76,0,5.12,0,10.23,0,15.35,0,4.72,0,9.43,0,14.15,0,1.05-.4,1.48-1.44,1.5-.9,.02-1.81,0-2.71,0-.57,0-1.15,0-1.72,0v6.12h13.01v-9.98c-1.4,0-2.76,0-4.12,0-1.41,0-1.75-.33-1.75-1.73,0-4.76,0-9.51,0-14.27,0-2.55-.01-5.1,0-7.65,0-1.12,.44-1.54,1.54-1.54,3.79,0,7.58,0,11.38,0,1.05,0,1.49,.47,1.49,1.52,0,1.91,0,3.81,0,5.72v2.56c.11,0,.15,.02,.18,.01,3.15-1.13,5.55-5,5.18-8.33-.41-3.78-2.42-6.31-5.93-7.69-.75-.3-1.07-.79-1.12-1.61-.06-1.04-.07-2.1-.29-3.11-1.16-5.4-5.47-9.41-10.98-10.27-5.16-.81-10.43,1.8-13.14,6.51-.64,1.12-1.11,1.27-2.31,.77-2.02-.84-4.1-1.12-6.24-.61-3.81,.9-6.37,3.23-7.7,6.9-.21,.59-.55,.9-1.21,.97-3.69,.4-6.86,3.51-7.45,7.24-.58,3.71,1.42,7.5,4.81,9.08,.13,.06,.28,.09,.47,.15,0-2.84,0-5.61,0-8.37,0-.98,.44-1.46,1.42-1.46,3.81,0,7.62,0,11.44,0,.93,0,1.37,.43,1.4,1.36,.03,.86,.01,1.73,.01,2.59,0,6.62,0,13.24,0,19.87,0,1.08-.41,1.49-1.5,1.5-1.1,.01-2.21,0-3.31,0-.35,0-.7,0-1.04,0-.03,.16-.05,.22-.05,.28,0,3.05,0,6.1-.02,9.15,0,.45,.24,.46,.57,.46,4.01,0,8.03,0,12.04,0,.19,0,.38-.02,.58-.03v-6.13Zm-3.23-30.14v27.53h9.14V22.77h-9.14Zm24.81,23.81V26.51h-9.15v20.07h9.15ZM19.75,26.51H10.58v19.92h9.17V26.51Z"/><path class="b" d="M32.12,28.99c0,.98,0,1.96,0,2.94-.01,.93-.45,1.42-1.25,1.43-.81,.01-1.33-.53-1.33-1.44-.01-1.98-.02-3.97-.01-5.95,0-.94,.48-1.46,1.3-1.45,.83,0,1.29,.5,1.3,1.46,.01,1,0,2,0,3h0Z"/><path class="b" d="M30.87,43.92c-.64,0-1.28,.02-1.92,0-.82-.03-1.31-.5-1.33-1.24-.03-.79,.44-1.3,1.3-1.32,1.3-.03,2.6-.03,3.9,0,.83,.02,1.36,.57,1.35,1.31,0,.76-.52,1.24-1.38,1.26-.64,.02-1.28,0-1.92,0h0Z"/><path class="b" d="M30.88,39.29c-.64,0-1.28,.01-1.92,0-.84-.02-1.36-.52-1.35-1.28,0-.78,.52-1.28,1.36-1.28,1.28,0,2.57,0,3.85,0,.8,0,1.36,.55,1.36,1.3,0,.74-.5,1.24-1.31,1.26-.66,.02-1.32,0-1.98,0h0Z"/><path class="b" d="M30.94,48.4c-.68,0-1.36,.01-2.04,0-.8-.02-1.29-.52-1.29-1.28,0-.75,.5-1.26,1.29-1.27,1.3-.02,2.6-.02,3.9,0,.8,0,1.36,.56,1.36,1.29,0,.77-.51,1.24-1.37,1.26-.32,0-.64,0-.96,0-.3,0-.6,0-.9,0h0Z"/><path class="b" d="M46.6,36.96c.62,0,1.24,0,1.86,0,.83,.01,1.36,.51,1.38,1.27,.02,.77-.48,1.3-1.32,1.31-1.3,.02-2.61,.02-3.91,0-.82-.02-1.34-.57-1.32-1.33,.02-.78,.5-1.23,1.38-1.24,.64-.01,1.28,0,1.92,0h0Z"/><path class="b" d="M46.53,41.86c.66,0,1.32,0,1.98,0,.83,.02,1.34,.52,1.34,1.3,0,.75-.52,1.25-1.31,1.26-1.3,.01-2.6,.01-3.91,0-.8,0-1.35-.56-1.34-1.31,0-.76,.49-1.21,1.32-1.24,.06,0,.12,0,.18,0,.58,0,1.16,0,1.74,0h0Z"/><path class="b" d="M47.92,31.4c0,.58,0,1.16,0,1.74-.01,.85-.48,1.37-1.25,1.39-.7,.02-1.29-.5-1.31-1.28-.03-1.28-.03-2.57,0-3.85,.02-.74,.52-1.15,1.27-1.15,.73,0,1.22,.42,1.27,1.16,.04,.66,0,1.32,0,1.98h.01Z"/><path class="b" d="M15.12,36.97c.64,0,1.28-.02,1.92,0,.86,.03,1.33,.5,1.33,1.3,0,.77-.45,1.25-1.29,1.27-1.32,.03-2.64,.03-3.96,0-.84-.02-1.33-.55-1.31-1.32,.02-.76,.55-1.24,1.39-1.26,.64-.01,1.28,0,1.92,0h0Z"/><path class="b" d="M15.18,41.87c.66,0,1.32-.02,1.98,0,.77,.03,1.22,.52,1.21,1.27,0,.74-.48,1.26-1.23,1.27-1.36,.02-2.72,.02-4.08,0-.75-.01-1.25-.54-1.25-1.25,0-.76,.48-1.27,1.27-1.3,.7-.02,1.4,0,2.1,0h0Z"/><path class="b" d="M16.31,31.45c0,.62,.02,1.24,0,1.86-.03,.69-.41,1.12-1.02,1.22-.58,.1-1.2-.27-1.42-.87-.08-.24-.12-.51-.12-.76-.01-1.06-.01-2.12,0-3.18,0-.96,.46-1.46,1.29-1.46,.84,0,1.27,.49,1.3,1.45,.01,.58,0,1.16,0,1.74h-.01Z"/></svg>