<?xml version="1.0" encoding="UTF-8"?><svg id="a" xmlns="http://www.w3.org/2000/svg" viewBox="0 0 61.65 57.8"><defs><style>.b{fill:#00714a;}</style></defs><path class="b" d="M9.99,32.5c-.24-.59-.39-.99-.55-1.39C6.49,24.23,3.54,17.35,.6,10.46c-.16-.37-.33-.74-.39-1.13-.16-.9,.18-1.62,1.02-1.96,.87-.35,1.67-.15,2.21,.67,.2,.3,.32,.64,.46,.97,3.19,7.43,6.4,14.86,9.55,22.31,.36,.85,.74,1.21,1.73,1.2,10.43-.04,20.86-.04,31.29,0,.99,0,1.37-.35,1.73-1.2,3.15-7.45,6.36-14.88,9.55-22.31,.13-.29,.23-.6,.39-.87,.54-.88,1.36-1.15,2.28-.77,.9,.37,1.21,1.14,1,2.08-.09,.39-.27,.75-.42,1.12-2.93,6.85-5.86,13.7-8.79,20.55-.17,.39-.32,.8-.55,1.38,1.55,0,2.93-.01,4.32,0,3.4,.03,5.64,2.27,5.66,5.67,.02,3.37,0,6.74,0,10.11,0,3.61-2.23,5.85-5.84,5.89-.44,0-.87,0-1.39,0-.33,1.46,.48,3.74-2.04,3.62-2.22-.1-1.51-2.13-1.76-3.55H11.06c-.31,1.38,.5,3.66-2.01,3.55-2.22-.1-1.53-2.12-1.78-3.62-.56,0-1.11,.01-1.66,0C2.3,54.09,.03,51.81,.02,48.52c-.02-3.49-.02-6.98,0-10.47,.02-3.24,2.29-5.5,5.54-5.54,1.4-.02,2.8,0,4.44,0Zm20.84,3.62c-8.3,0-16.6,0-24.9,0-1.71,0-2.29,.6-2.3,2.32,0,3.25,0,6.5,0,9.75,0,1.7,.62,2.36,2.29,2.36,16.6,0,33.21,0,49.81,0,1.67,0,2.3-.66,2.3-2.36,0-3.17,0-6.34,0-9.5,0-2.05-.51-2.57-2.54-2.57-8.22,0-16.44,0-24.66,0Z"/><path class="b" d="M50.52,8.89c-.04,1.69-1.51,2.52-2.71,1.85-.24-.13-.45-.33-.65-.52-9.57-8.84-23.12-8.87-32.59-.06-1.08,1-2.18,1.09-2.94,.24-.76-.85-.62-1.8,.43-2.83,10.29-10.1,27.35-10.09,37.57,.03,.43,.43,.71,1.01,.9,1.28Z"/><path class="b" d="M30.76,7.08c5.36,.16,9.96,2,13.82,5.67,1.11,1.05,1.03,2.51-.14,3.12-.93,.49-1.68,.13-2.38-.53-2.35-2.24-5.11-3.71-8.32-4.25-5.27-.88-9.92,.45-13.91,4.02-.15,.13-.29,.28-.44,.41-.93,.78-1.96,.77-2.67-.03-.66-.74-.61-1.79,.2-2.59,2.59-2.57,5.67-4.31,9.22-5.13,1.51-.35,3.08-.47,4.62-.69Z"/><path class="b" d="M40.25,19.03c.03,1.72-1.37,2.61-2.59,1.95-.35-.19-.64-.48-.94-.74-3.4-2.93-8.39-2.93-11.79,0-.15,.13-.29,.28-.44,.4-.94,.77-1.97,.75-2.67-.06-.65-.74-.59-1.79,.22-2.58,1.94-1.92,4.29-3.1,6.99-3.45,3.95-.51,7.47,.54,10.4,3.29,.41,.38,.66,.94,.82,1.19Z"/><path class="b" d="M30.84,21.67c1.39-.03,2.59,.46,3.61,1.38,.84,.76,.96,1.78,.34,2.57-.62,.79-1.66,.95-2.56,.25-.98-.76-1.83-.75-2.81,.01-.88,.69-1.94,.52-2.56-.28-.58-.76-.5-1.75,.28-2.48,1.03-.97,2.27-1.48,3.7-1.45Z"/><path class="b" d="M39.83,43.35c0,.64,.05,1.28-.01,1.92-.1,1.02-.75,1.63-1.74,1.64-.99,.01-1.71-.56-1.78-1.59-.09-1.31-.09-2.64,0-3.96,.06-1.01,.7-1.59,1.74-1.63,.99-.04,1.7,.62,1.8,1.69,.06,.63,.01,1.28,.01,1.92h0Z"/><path class="b" d="M47.06,43.29c0,.64,.05,1.28-.01,1.92-.09,1.03-.89,1.79-1.81,1.72-1-.08-1.68-.63-1.74-1.65-.07-1.32-.08-2.64,.01-3.96,.07-1.01,.75-1.58,1.78-1.57,1.04,.01,1.63,.62,1.74,1.62,.07,.63,.01,1.28,.01,1.92h0Z"/><path class="b" d="M54.26,43.32c0,.68,.06,1.37-.01,2.04-.11,.97-.76,1.53-1.7,1.55-.99,.02-1.73-.54-1.8-1.56-.09-1.35-.1-2.72,0-4.07,.07-1.01,.77-1.56,1.81-1.54,.98,.02,1.57,.59,1.69,1.54,.08,.67,.02,1.36,.02,2.04Z"/></svg>