<?xml version="1.0" encoding="UTF-8"?><svg id="a" xmlns="http://www.w3.org/2000/svg" viewBox="0 0 61.65 57.78"><defs><style>.b{fill:#00714a;}</style></defs><path class="b" d="M6.25,20.29c-2.6,1.08-4.43,3.65-4.43,6.63v2.13h1.37v-2.13c0-3.21,2.61-5.81,5.82-5.81h.53v18.55h-.53c-3.21,0-5.82-2.6-5.82-5.82v-2.12H1.83v2.12c0,3.96,3.22,7.19,7.19,7.19h.58c.24,1.19,1.28,2.09,2.54,2.09,1.43,0,2.59-1.16,2.59-2.59V20.8c0-1.43-1.16-2.59-2.59-2.59-1.05,0-1.95,.63-2.35,1.52h-.77c-.43,0-.84,.04-1.25,.12C10.33,9.26,19.85,1.55,30.83,1.37L30.8,0C18.94,.2,8.68,8.71,6.25,20.29Zm5.88-.71c.67,0,1.22,.55,1.22,1.22v19.72c0,.67-.55,1.22-1.22,1.22s-1.21-.54-1.22-1.21V20.79c0-.67,.55-1.21,1.22-1.21Z"/><path class="b" d="M59.82,29.04v-2.13c0-2.98-1.83-5.54-4.43-6.63C52.97,8.71,42.72,.2,30.85,0l-.02,1.37c10.98,.18,20.49,7.89,23.06,18.48-.41-.07-.82-.12-1.25-.12h-.77c-.41-.9-1.31-1.52-2.35-1.52-1.43,0-2.59,1.16-2.59,2.59v19.72c0,1.43,1.16,2.59,2.59,2.59,1.26,0,2.31-.9,2.54-2.09h.58c.63,0,1.25-.09,1.83-.25-.07,8.04-6.63,14.57-14.69,14.57h-2.92c-.16-1.01-1.02-1.79-2.08-1.79h-7.55c-1.16,0-2.11,.95-2.11,2.11s.95,2.11,2.11,2.11h7.55c.96,0,1.76-.64,2.02-1.52h2.98c8.61,0,15.61-7,15.61-15.61h-.46c2.85-.96,4.9-3.65,4.9-6.81v-2.12h-1.37v2.12c0,3.22-2.61,5.82-5.82,5.82h-.53V21.1h.53c3.21,0,5.82,2.6,5.82,5.81v2.13h1.37Zm-25.05,27.83h-7.55c-.66,0-1.2-.54-1.2-1.2s.54-1.2,1.2-1.2h7.55c.66,0,1.2,.54,1.2,1.2s-.54,1.2-1.2,1.2Zm14.74-15.12c-.67,0-1.22-.55-1.22-1.22V20.8c0-.67,.55-1.22,1.22-1.22s1.21,.54,1.22,1.21v19.74c0,.67-.55,1.21-1.22,1.21Z"/><path class="b" d="M36.76,42.49l5.2,4.09v-8.05c1.89-2.33,3.01-5.29,3.01-8.51,0-7.49-6.09-13.58-13.58-13.58s-13.58,6.09-13.58,13.58,6.09,13.58,13.58,13.58c1.91,0,3.73-.39,5.37-1.11Zm-17.59-12.47c0-6.73,5.48-12.21,12.21-12.21s12.21,5.48,12.21,12.21c0,2.8-.94,5.37-2.53,7.44-.16,.2-.32,.4-.48,.59v5.71l-2.08-1.64-.39-.3-.57-.44-.61-.48c-.25,.13-.5,.25-.76,.36-1.47,.63-3.09,.98-4.79,.98-6.73,0-12.21-5.48-12.21-12.21Z"/><path class="b" d="M27.42,32.7c.17-.14,.48-.38,.93-.7l.72-.51c.61-.43,1.05-.82,1.32-1.17,.41-.53,.61-1.13,.61-1.81,0-.89-.29-1.6-.86-2.14-.58-.54-1.35-.81-2.33-.81-1.23,0-2.09,.46-2.57,1.38-.25,.48-.4,1.12-.43,1.9h1.76c.02-.52,.09-.89,.2-1.13,.2-.41,.57-.62,1.12-.62,.4,0,.71,.13,.93,.39s.32,.58,.32,.97c0,.48-.19,.92-.57,1.32-.25,.26-.79,.69-1.62,1.28-.96,.69-1.57,1.34-1.83,1.95-.27,.55-.41,1.15-.43,1.81h6.3v-1.59h-4.02c.11-.19,.25-.36,.42-.5Z"/><path class="b" d="M35.53,34.79h1.77v-1.98h1.04v-1.41h-1.04v-5.75h-2.03l-3.38,5.59v1.58h3.64v1.98Zm-2.3-3.4l2.3-3.96v3.96h-2.3Z"/></svg>