<?xml version="1.0" encoding="UTF-8"?><svg id="a" xmlns="http://www.w3.org/2000/svg" viewBox="0 0 61.65 57.78"><defs><style>.b{fill:#00714a;}</style></defs><path class="b" d="M20,.08H3.55V12.98H20V.08Zm-1.41,11.49H4.96V1.49h13.63V11.57Z"/><rect class="b" x="6.7" y="5.7" width="5.5" height="1.66" transform="translate(-1.5 9.99) rotate(-52.16)"/><rect class="b" x="12.08" y="5.7" width="5.5" height="1.66" transform="translate(.58 14.24) rotate(-52.16)"/><path class="b" d="M38.88,.08H22.44V12.98h16.44V.08Zm-1.41,11.49h-13.63V1.49h13.63V11.57Z"/><rect class="b" x="25.59" y="5.7" width="5.5" height="1.66" transform="translate(5.8 24.9) rotate(-52.16)"/><rect class="b" x="30.97" y="5.7" width="5.5" height="1.66" transform="translate(7.88 29.15) rotate(-52.16)"/><path class="b" d="M57.77,.08h-16.44V12.98h16.44V.08Zm-1.41,11.49h-13.63V1.49h13.63V11.57Z"/><rect class="b" x="44.48" y="5.7" width="5.5" height="1.66" transform="translate(13.1 39.82) rotate(-52.16)"/><rect class="b" x="49.86" y="5.7" width="5.5" height="1.66" transform="translate(15.18 44.07) rotate(-52.16)"/><path class="b" d="M20,15.06H3.55v12.9H20V15.06Zm-1.41,11.49H4.96v-10.09h13.63v10.09Z"/><rect class="b" x="6.7" y="20.67" width="5.5" height="1.66" transform="translate(-13.33 15.78) rotate(-52.16)"/><rect class="b" x="12.08" y="20.67" width="5.5" height="1.66" transform="translate(-11.25 20.02) rotate(-52.16)"/><path class="b" d="M35.84,27.95h3.05V15.06H22.44v12.9h3.35c.44-.55,.96-1.02,1.56-1.41h-3.5v-10.08h13.63v10.08h-3.19c.59,.38,1.12,.85,1.55,1.41Z"/><rect class="b" x="25.59" y="20.67" width="5.5" height="1.66" transform="translate(-6.03 30.69) rotate(-52.16)"/><rect class="b" x="30.97" y="20.67" width="5.5" height="1.66" transform="translate(-3.95 34.94) rotate(-52.16)"/><path class="b" d="M57.77,15.06h-16.44v12.9h16.44V15.06Zm-1.41,11.49h-13.63v-10.09h13.63v10.09Z"/><rect class="b" x="44.48" y="20.67" width="5.5" height="1.66" transform="translate(1.27 45.61) rotate(-52.16)"/><rect class="b" x="49.86" y="20.67" width="5.5" height="1.66" transform="translate(3.35 49.86) rotate(-52.16)"/><path class="b" d="M54.99,39.22v-3.33h-10.83v3.33h-4.03c-.1-2.37-2.04-4.27-4.43-4.27h-.3c.57-.86,.9-1.89,.9-3,0-3.03-2.46-5.49-5.49-5.49s-5.49,2.47-5.49,5.49c0,1.11,.33,2.14,.9,3h-.29c-2.39,0-4.34,1.9-4.44,4.27h-1.26v-5.39h-.81v-1.98h-1.88v1.98h-2.68v5.39h-2.15v-5.39h-.81v-1.98h-1.88v1.98h-2.68v5.39H1.37v5.4H3.46v12.61h1.93v-12.61H21.47v8.11c-.94,.3-1.63,1.17-1.63,2.21v.43c0,1.29,1.05,2.33,2.33,2.33h16.81c1.29,0,2.33-1.05,2.33-2.33v-.43c0-.85-.46-1.59-1.15-2v-8.32h15.74v12.61h1.93v-12.61h2.46v-5.4h-5.28Zm-9.54-2.03h8.24v1.39h-8.24v-1.39Zm-29.38-2.14h2.93v3.67h-2.93v-3.67Zm-7.52,0h2.93v3.67h-2.93v-3.67Zm18.58-3.09c0-2.02,1.65-3.67,3.67-3.67s3.68,1.65,3.68,3.67c0,1.24-.62,2.33-1.56,3-.6,.42-1.34,.67-2.13,.67s-1.52-.25-2.12-.67c-.94-.67-1.56-1.76-1.56-3Zm-4.3,7.45c0-1.71,1.39-3.09,3.09-3.09h9.78c1.71,0,3.09,1.39,3.09,3.09v12.88h-15.96v-12.88Zm-20.1,3.85v-2.67H21.47v2.67H2.74Zm37.21,12.11c0,.53-.43,.97-.97,.97H22.17c-.53,0-.97-.43-.97-.97v-.43c0-.53,.43-.97,.97-.97h16.81c.53,0,.97,.43,.97,.97v.43Zm18.97-12.11h-18.73v-2.67h18.73v2.67Z"/></svg>