<?xml version="1.0" encoding="UTF-8"?><svg id="a" xmlns="http://www.w3.org/2000/svg" viewBox="0 0 61.65 57.78"><defs><style>.b{fill:#00714a;}</style></defs><polygon class="b" points="4.9 34.4 4.9 48.16 27.8 48.16 27.8 31.71 29.81 33.6 30.79 32.55 27.8 29.75 27.8 19.7 21.23 19.7 21.23 22.31 22.66 22.31 22.66 21.14 26.36 21.14 26.36 28.41 16.34 19.05 1.71 33.06 2.7 34.1 16.35 21.02 26.36 30.37 26.36 46.72 13.11 46.72 13.11 36.7 19.4 36.7 19.4 44.09 20.83 44.09 20.83 35.27 11.67 35.27 11.67 46.72 6.34 46.72 6.34 34.4 4.9 34.4"/><path class="b" d="M47.5,54.56c0,.98-.8,1.78-1.78,1.78H18.75c-.98,0-1.78-.8-1.78-1.78v-3.77h-1.43v3.77c0,1.77,1.44,3.22,3.22,3.22h26.96c1.77,0,3.22-1.44,3.22-3.22v-3.77h-1.43v3.77Z"/><path class="b" d="M40.55,15.01c-1.82,0-3.3,1.48-3.3,3.3s1.48,3.3,3.3,3.3h17.96v23.38c0,.95-.77,1.72-1.72,1.72h-16.4c-.95,0-1.72-.77-1.72-1.72v-.41h17.39v-2.04h-17.39V24.18h-1.43v20.82c0,1.74,1.41,3.15,3.15,3.15h16.4c1.74,0,3.15-1.41,3.15-3.15V15.01h-19.4Zm0,5.17c-1.03,0-1.87-.84-1.87-1.87s.84-1.87,1.87-1.87h17.96v3.74h-17.96Z"/><path class="b" d="M46.48,22.8v10.55c-1.48,.41-2.57,1.75-2.57,3.35,0,1.93,1.57,3.49,3.49,3.49s3.49-1.57,3.49-3.49c0-1.64-1.15-3.02-2.68-3.39v-2.25h3.1v-2.11h-3.1v-1.85h5v-1.95h-5v-2.35h-1.74Zm2.99,13.9c0,1.14-.92,2.06-2.06,2.06s-2.06-.92-2.06-2.06,.92-2.06,2.06-2.06,2.06,.92,2.06,2.06Z"/><path class="b" d="M27.83,14.12c0,1.63,1.32,2.95,2.94,2.95s2.95-1.32,2.95-2.95-1.32-2.94-2.95-2.94-2.94,1.32-2.94,2.94Zm4.42,0c0,.82-.66,1.48-1.48,1.48s-1.47-.66-1.47-1.48,.66-1.47,1.47-1.47,1.48,.66,1.48,1.47Z"/><path class="b" d="M34.79,11.6l.98-1.14c-1.12-1.54-2.94-2.54-5-2.54s-3.83,.98-4.95,2.49l.97,1.14c.83-1.31,2.31-2.17,3.98-2.17s3.19,.88,4.02,2.22Z"/><path class="b" d="M37.38,8.58l.96-1.12c-1.84-2.11-4.55-3.43-7.57-3.43s-5.68,1.3-7.52,3.38l.96,1.13c1.57-1.86,3.93-3.05,6.56-3.05s5.03,1.2,6.61,3.09Z"/><path class="b" d="M30.77,1.45c3.65,0,6.94,1.55,9.26,4.03l.95-1.11C38.41,1.68,34.79,0,30.77,0s-7.6,1.67-10.16,4.34l.95,1.11c2.31-2.46,5.59-3.99,9.21-3.99Z"/></svg>