<?xml version="1.0" encoding="UTF-8"?>
<svg id="a" xmlns="http://www.w3.org/2000/svg" viewBox="0 0 30 30"><defs><style>.b{fill:#00714a;}</style></defs><path class="b" d="M27.08,6.22c.1,0,.18,.08,.18,.18v15.85c0,.1-.08,.18-.18,.18H2.98c-.1,0-.18-.08-.18-.18V6.4c0-.1,.08-.18,.18-.18H27.08m0-.8H2.98c-.54,0-.98,.44-.98,.98v15.85c0,.54,.44,.98,.98,.98H27.08c.54,0,.98-.44,.98-.98V6.4c0-.54-.44-.98-.98-.98h0Z"/><path class="b" d="M30,23.76c0,.45-.37,.82-.82,.82H.82c-.45,0-.82-.37-.82-.82H12c.17,0,.28,.19,.28,.19h5.53s.1-.19,.28-.19h11.91Z"/></svg>
