<?xml version="1.0" encoding="UTF-8"?>
<svg id="a" xmlns="http://www.w3.org/2000/svg" viewBox="0 0 30 30"><defs><style>.b{fill:#00714ad1;}.c{fill:#00714a;}.d{fill:none;stroke:#00714ad1;stroke-linecap:round;stroke-linejoin:round;stroke-width:.6px;}</style></defs><path class="c" d="M26.27,6.25c.55,0,.99,.45,.99,.99v2.31c0,.58-.48,1.06-1.06,1.06H3.8c-.58,0-1.06-.48-1.06-1.06v-2.31c0-.55,.45-.99,.99-.99H26.27m0-.8H3.73c-.99,0-1.79,.8-1.79,1.79v2.31c0,1.03,.83,1.86,1.86,1.86H26.2c1.03,0,1.86-.83,1.86-1.86v-2.31c0-.99-.8-1.79-1.79-1.79h0Z"/><line class="d" x1="4.57" y1="8.43" x2="10.07" y2="8.43"/><circle class="b" cx="24.83" cy="8.42" r=".75"/><path class="c" d="M26.27,12.82c.55,0,.99,.45,.99,.99v2.31c0,.58-.48,1.06-1.06,1.06H3.8c-.58,0-1.06-.48-1.06-1.06v-2.31c0-.55,.45-.99,.99-.99H26.27m0-.8H3.73c-.99,0-1.79,.8-1.79,1.79v2.31c0,1.03,.83,1.86,1.86,1.86H26.2c1.03,0,1.86-.83,1.86-1.86v-2.31c0-.99-.8-1.79-1.79-1.79h0Z"/><line class="d" x1="4.57" y1="15" x2="10.07" y2="15"/><circle class="b" cx="24.83" cy="14.99" r=".75"/><path class="c" d="M26.27,19.39c.55,0,.99,.45,.99,.99v2.31c0,.58-.48,1.06-1.06,1.06H3.8c-.58,0-1.06-.48-1.06-1.06v-2.31c0-.55,.45-.99,.99-.99H26.27m0-.8H3.73c-.99,0-1.79,.8-1.79,1.79v2.31c0,1.03,.83,1.86,1.86,1.86H26.2c1.03,0,1.86-.83,1.86-1.86v-2.31c0-.99-.8-1.79-1.79-1.79h0Z"/><line class="d" x1="4.57" y1="21.57" x2="10.07" y2="21.57"/><circle class="b" cx="24.83" cy="21.56" r=".75"/></svg>
